<?xml version="1.0" standalone="no"?>
<!DOCTYPE svg PUBLIC "-//W3C//DTD SVG 20010904//EN"
 "http://www.w3.org/TR/2001/REC-SVG-20010904/DTD/svg10.dtd">
<svg version="1.0" xmlns="http://www.w3.org/2000/svg"
 width="1024.000000pt" height="1024.000000pt" viewBox="0 0 1024.000000 1024.000000"
 preserveAspectRatio="xMidYMid meet">
<metadata>
Created by potrace 1.11, written by Peter Selinger 2001-2013
</metadata>
<g transform="translate(0.000000,1024.000000) scale(0.100000,-0.100000)"
fill="#000000" stroke="none">
<path d="M7236 8382 c-8 -26 -28 -99 -45 -162 -16 -63 -41 -159 -55 -214 -15
-54 -25 -100 -24 -101 2 -2 14 -5 27 -7 21 -3 26 4 42 50 60 177 146 271 291
322 74 25 104 30 252 36 120 4 128 3 121 -13 -6 -16 -266 -914 -286 -988 -4
-16 -19 -68 -32 -115 -14 -47 -46 -155 -71 -240 -79 -270 -115 -360 -162 -401
-31 -27 -105 -50 -172 -53 -69 -3 -67 -2 -76 -33 l-7 -23 429 0 430 0 6 23 c3
12 6 24 6 27 0 3 -28 6 -63 6 -117 2 -176 24 -200 72 -23 45 -24 41 80 402 36
123 67 231 69 240 2 8 10 40 19 70 9 30 18 62 20 70 2 8 4 15 5 15 1 0 3 7 5
15 4 21 169 601 219 770 9 30 18 64 21 75 2 11 8 34 13 50 l8 30 129 1 c163 0
241 -11 281 -41 61 -46 77 -114 60 -255 -14 -119 -14 -115 14 -112 14 2 26 5
26 5 1 1 34 108 73 237 40 129 76 247 81 262 l8 26 -763 0 -764 0 -15 -46z"/>
<path d="M1459 7255 c0 -8 0 -44 0 -80 0 -36 0 -74 0 -85 1 -20 8 -20 2766
-20 l2765 0 0 100 0 100 -2765 0 c-2451 0 -2765 -2 -2766 -15z"/>
<path d="M2444 6828 c-3 -4 -13 -32 -24 -63 -13 -39 -15 -55 -7 -56 7 -1 40
-2 73 -4 283 -14 369 -47 421 -163 23 -53 25 -65 20 -157 -7 -109 -11 -137
-33 -235 -9 -36 -17 -74 -20 -85 -3 -18 -81 -290 -149 -520 -14 -49 -46 -157
-70 -240 -24 -82 -85 -289 -135 -460 -50 -170 -120 -409 -155 -530 -36 -121
-92 -312 -125 -425 -33 -113 -63 -214 -65 -225 -3 -11 -14 -49 -25 -85 -11
-36 -58 -195 -105 -355 -162 -547 -228 -702 -334 -779 -108 -80 -210 -110
-387 -115 -43 -1 -81 -4 -85 -7 -11 -7 -51 -116 -44 -122 3 -3 408 -6 902 -6
952 -1 923 -2 923 45 0 25 1 30 11 57 11 27 8 28 -86 37 -100 8 -140 15 -225
37 -185 48 -225 138 -185 408 12 79 91 363 234 845 84 281 154 515 155 520 1
6 10 35 19 65 9 30 34 114 55 185 l39 130 1071 2 c590 0 1072 -1 1072 -3 0 -7
-32 -118 -85 -294 -2 -8 -9 -31 -14 -50 -5 -19 -28 -98 -51 -175 -23 -77 -104
-353 -181 -613 -237 -804 -283 -904 -456 -995 -94 -48 -131 -56 -372 -71 -20
-1 -29 -12 -48 -60 -13 -32 -22 -61 -19 -64 5 -4 1714 -7 1787 -3 11 1 21 21
33 62 9 34 15 62 14 63 -2 2 -54 8 -116 15 -250 26 -342 68 -386 174 -15 36
-16 175 -2 247 4 24 32 149 40 180 14 55 253 876 496 1705 75 256 101 345 105
365 4 19 211 723 272 925 111 372 198 546 318 637 48 37 146 89 192 103 59 17
182 32 247 30 l55 -2 21 60 c11 34 20 63 20 66 0 4 -419 6 -932 6 l-932 0 -18
-60 c-10 -33 -18 -62 -18 -65 0 -3 30 -5 68 -5 61 0 178 -9 227 -18 104 -19
190 -85 214 -167 12 -42 16 -153 6 -210 -2 -14 -6 -41 -9 -60 -7 -44 -15 -83
-27 -140 -12 -55 -107 -397 -119 -425 -4 -11 -52 -168 -105 -350 -87 -297
-107 -365 -120 -415 -2 -8 -4 -16 -5 -17 -2 -2 -3 -6 -4 -10 -1 -5 -10 -34
-19 -65 -17 -57 -18 -58 -55 -59 -45 0 -2084 0 -2095 0 -5 1 -5 6 -1 12 4 6
10 25 14 43 8 31 52 183 115 396 68 227 216 735 220 750 14 60 116 333 154
410 61 126 136 203 253 259 45 22 99 42 118 45 92 16 119 18 184 20 l70 2 18
53 c11 29 17 59 15 65 -4 13 -1815 17 -1823 4z"/>
</g>
</svg>
